<mxfile host="app.diagrams.net" modified="2021-02-25T00:04:59.625Z" agent="5.0 (Windows NT 10.0; Win64; x64) AppleWebKit/537.36 (KHTML, like Gecko) Chrome/88.0.4324.182 Safari/537.36" etag="5B_pfsyRXjPnPXp3UgPh" version="14.4.3" type="github">
  <diagram id="C5RBs43oDa-KdzZeNtuy" name="Page-1">
    <mxGraphModel dx="1185" dy="1804" grid="1" gridSize="10" guides="1" tooltips="1" connect="1" arrows="1" fold="1" page="1" pageScale="1" pageWidth="827" pageHeight="1169" math="0" shadow="0">
      <root>
        <mxCell id="WIyWlLk6GJQsqaUBKTNV-0" />
        <mxCell id="WIyWlLk6GJQsqaUBKTNV-1" parent="WIyWlLk6GJQsqaUBKTNV-0" />
        <mxCell id="gQBBfw7n3HrlF9a1rkUc-0" value="idle" style="rounded=1;whiteSpace=wrap;html=1;" vertex="1" parent="WIyWlLk6GJQsqaUBKTNV-1">
          <mxGeometry x="120" y="190" width="120" height="60" as="geometry" />
        </mxCell>
        <mxCell id="gQBBfw7n3HrlF9a1rkUc-1" value="" style="endArrow=classic;html=1;entryX=0;entryY=0.5;entryDx=0;entryDy=0;" edge="1" parent="WIyWlLk6GJQsqaUBKTNV-1" target="gQBBfw7n3HrlF9a1rkUc-0">
          <mxGeometry width="50" height="50" relative="1" as="geometry">
            <mxPoint x="60" y="220" as="sourcePoint" />
            <mxPoint x="100" y="200" as="targetPoint" />
          </mxGeometry>
        </mxCell>
        <mxCell id="gQBBfw7n3HrlF9a1rkUc-2" value="Reset" style="text;html=1;strokeColor=none;fillColor=none;align=center;verticalAlign=middle;whiteSpace=wrap;rounded=0;" vertex="1" parent="WIyWlLk6GJQsqaUBKTNV-1">
          <mxGeometry x="20" y="210" width="40" height="20" as="geometry" />
        </mxCell>
        <mxCell id="gQBBfw7n3HrlF9a1rkUc-3" value="write" style="rounded=1;whiteSpace=wrap;html=1;" vertex="1" parent="WIyWlLk6GJQsqaUBKTNV-1">
          <mxGeometry x="320" y="100" width="120" height="60" as="geometry" />
        </mxCell>
        <mxCell id="gQBBfw7n3HrlF9a1rkUc-4" value="read" style="rounded=1;whiteSpace=wrap;html=1;" vertex="1" parent="WIyWlLk6GJQsqaUBKTNV-1">
          <mxGeometry x="320" y="260" width="120" height="60" as="geometry" />
        </mxCell>
        <mxCell id="gQBBfw7n3HrlF9a1rkUc-7" value="" style="endArrow=classic;html=1;entryX=0;entryY=0.5;entryDx=0;entryDy=0;" edge="1" parent="WIyWlLk6GJQsqaUBKTNV-1" target="gQBBfw7n3HrlF9a1rkUc-3">
          <mxGeometry relative="1" as="geometry">
            <mxPoint x="240" y="190" as="sourcePoint" />
            <mxPoint x="340" y="190" as="targetPoint" />
            <Array as="points">
              <mxPoint x="280" y="160" />
            </Array>
          </mxGeometry>
        </mxCell>
        <mxCell id="gQBBfw7n3HrlF9a1rkUc-8" value="s_write = 1" style="edgeLabel;resizable=0;html=1;align=center;verticalAlign=middle;" connectable="0" vertex="1" parent="gQBBfw7n3HrlF9a1rkUc-7">
          <mxGeometry relative="1" as="geometry" />
        </mxCell>
        <mxCell id="gQBBfw7n3HrlF9a1rkUc-12" value="" style="endArrow=classic;html=1;entryX=0;entryY=0.5;entryDx=0;entryDy=0;" edge="1" parent="WIyWlLk6GJQsqaUBKTNV-1" target="gQBBfw7n3HrlF9a1rkUc-4">
          <mxGeometry relative="1" as="geometry">
            <mxPoint x="240" y="250" as="sourcePoint" />
            <mxPoint x="340" y="250" as="targetPoint" />
          </mxGeometry>
        </mxCell>
        <mxCell id="gQBBfw7n3HrlF9a1rkUc-13" value="s_read = 1" style="edgeLabel;resizable=0;html=1;align=center;verticalAlign=middle;" connectable="0" vertex="1" parent="gQBBfw7n3HrlF9a1rkUc-12">
          <mxGeometry relative="1" as="geometry" />
        </mxCell>
        <mxCell id="gQBBfw7n3HrlF9a1rkUc-16" value="" style="curved=1;endArrow=classic;html=1;exitX=0.25;exitY=0;exitDx=0;exitDy=0;entryX=0.5;entryY=0;entryDx=0;entryDy=0;" edge="1" parent="WIyWlLk6GJQsqaUBKTNV-1" source="gQBBfw7n3HrlF9a1rkUc-3" target="gQBBfw7n3HrlF9a1rkUc-0">
          <mxGeometry width="50" height="50" relative="1" as="geometry">
            <mxPoint x="390" y="420" as="sourcePoint" />
            <mxPoint x="440" y="370" as="targetPoint" />
            <Array as="points">
              <mxPoint x="230" y="80" />
              <mxPoint x="190" y="110" />
            </Array>
          </mxGeometry>
        </mxCell>
        <mxCell id="gQBBfw7n3HrlF9a1rkUc-56" value="&lt;span style=&quot;font-size: 12px ; background-color: rgb(248 , 249 , 250)&quot;&gt;cache hit on valid,&lt;br&gt;&amp;nbsp;not dirty&lt;/span&gt;" style="edgeLabel;html=1;align=center;verticalAlign=middle;resizable=0;points=[];" vertex="1" connectable="0" parent="gQBBfw7n3HrlF9a1rkUc-16">
          <mxGeometry x="-0.2271" y="5" relative="1" as="geometry">
            <mxPoint as="offset" />
          </mxGeometry>
        </mxCell>
        <mxCell id="gQBBfw7n3HrlF9a1rkUc-19" value="write_to_mem_write" style="rounded=1;whiteSpace=wrap;html=1;" vertex="1" parent="WIyWlLk6GJQsqaUBKTNV-1">
          <mxGeometry x="490" y="30" width="120" height="60" as="geometry" />
        </mxCell>
        <mxCell id="gQBBfw7n3HrlF9a1rkUc-21" value="" style="endArrow=classic;html=1;entryX=0;entryY=0.5;entryDx=0;entryDy=0;" edge="1" parent="WIyWlLk6GJQsqaUBKTNV-1" target="gQBBfw7n3HrlF9a1rkUc-19">
          <mxGeometry relative="1" as="geometry">
            <mxPoint x="370" y="100" as="sourcePoint" />
            <mxPoint x="470" y="100" as="targetPoint" />
          </mxGeometry>
        </mxCell>
        <mxCell id="gQBBfw7n3HrlF9a1rkUc-22" value="cache miss, dirty, valid" style="edgeLabel;resizable=0;html=1;align=center;verticalAlign=middle;" connectable="0" vertex="1" parent="gQBBfw7n3HrlF9a1rkUc-21">
          <mxGeometry relative="1" as="geometry">
            <mxPoint x="1" as="offset" />
          </mxGeometry>
        </mxCell>
        <mxCell id="gQBBfw7n3HrlF9a1rkUc-23" value="" style="curved=1;endArrow=classic;html=1;exitX=0.25;exitY=0;exitDx=0;exitDy=0;entryX=0.75;entryY=0;entryDx=0;entryDy=0;" edge="1" parent="WIyWlLk6GJQsqaUBKTNV-1" source="gQBBfw7n3HrlF9a1rkUc-19" target="gQBBfw7n3HrlF9a1rkUc-19">
          <mxGeometry width="50" height="50" relative="1" as="geometry">
            <mxPoint x="520" y="20" as="sourcePoint" />
            <mxPoint x="560" y="-10" as="targetPoint" />
            <Array as="points">
              <mxPoint x="520" y="-10" />
              <mxPoint x="560" y="-10" />
            </Array>
          </mxGeometry>
        </mxCell>
        <mxCell id="gQBBfw7n3HrlF9a1rkUc-54" value="&lt;span style=&quot;font-size: 12px ; background-color: rgb(248 , 249 , 250)&quot;&gt;not finished writing to mem&lt;/span&gt;" style="edgeLabel;html=1;align=center;verticalAlign=middle;resizable=0;points=[];" vertex="1" connectable="0" parent="gQBBfw7n3HrlF9a1rkUc-23">
          <mxGeometry x="0.1225" y="-3" relative="1" as="geometry">
            <mxPoint as="offset" />
          </mxGeometry>
        </mxCell>
        <mxCell id="gQBBfw7n3HrlF9a1rkUc-25" value="get_from_mem_write" style="rounded=1;whiteSpace=wrap;html=1;" vertex="1" parent="WIyWlLk6GJQsqaUBKTNV-1">
          <mxGeometry x="570" y="120" width="120" height="60" as="geometry" />
        </mxCell>
        <mxCell id="gQBBfw7n3HrlF9a1rkUc-28" value="" style="curved=1;endArrow=classic;html=1;exitX=0;exitY=0.25;exitDx=0;exitDy=0;entryX=0.125;entryY=-0.05;entryDx=0;entryDy=0;entryPerimeter=0;" edge="1" parent="WIyWlLk6GJQsqaUBKTNV-1" source="gQBBfw7n3HrlF9a1rkUc-19" target="gQBBfw7n3HrlF9a1rkUc-0">
          <mxGeometry width="50" height="50" relative="1" as="geometry">
            <mxPoint x="480" y="50" as="sourcePoint" />
            <mxPoint x="530" as="targetPoint" />
            <Array as="points">
              <mxPoint x="320" y="20" />
              <mxPoint x="180" y="45" />
            </Array>
          </mxGeometry>
        </mxCell>
        <mxCell id="gQBBfw7n3HrlF9a1rkUc-55" value="&lt;span style=&quot;font-size: 12px ; background-color: rgb(248 , 249 , 250)&quot;&gt;finished writing to cache&lt;/span&gt;" style="edgeLabel;html=1;align=center;verticalAlign=middle;resizable=0;points=[];" vertex="1" connectable="0" parent="gQBBfw7n3HrlF9a1rkUc-28">
          <mxGeometry x="-0.0716" y="2" relative="1" as="geometry">
            <mxPoint as="offset" />
          </mxGeometry>
        </mxCell>
        <mxCell id="gQBBfw7n3HrlF9a1rkUc-30" value="" style="endArrow=classic;html=1;entryX=-0.033;entryY=0.15;entryDx=0;entryDy=0;entryPerimeter=0;" edge="1" parent="WIyWlLk6GJQsqaUBKTNV-1" target="gQBBfw7n3HrlF9a1rkUc-25">
          <mxGeometry relative="1" as="geometry">
            <mxPoint x="440" y="120" as="sourcePoint" />
            <mxPoint x="540" y="120" as="targetPoint" />
          </mxGeometry>
        </mxCell>
        <mxCell id="gQBBfw7n3HrlF9a1rkUc-31" value="cache miss, invalid," style="edgeLabel;resizable=0;html=1;align=center;verticalAlign=middle;" connectable="0" vertex="1" parent="gQBBfw7n3HrlF9a1rkUc-30">
          <mxGeometry relative="1" as="geometry" />
        </mxCell>
        <mxCell id="gQBBfw7n3HrlF9a1rkUc-33" value="" style="curved=1;endArrow=classic;html=1;exitX=0.25;exitY=0;exitDx=0;exitDy=0;entryX=0.9;entryY=-0.05;entryDx=0;entryDy=0;entryPerimeter=0;" edge="1" parent="WIyWlLk6GJQsqaUBKTNV-1" source="gQBBfw7n3HrlF9a1rkUc-25" target="gQBBfw7n3HrlF9a1rkUc-25">
          <mxGeometry width="50" height="50" relative="1" as="geometry">
            <mxPoint x="620" y="130" as="sourcePoint" />
            <mxPoint x="670" y="80" as="targetPoint" />
            <Array as="points">
              <mxPoint x="640" y="70" />
            </Array>
          </mxGeometry>
        </mxCell>
        <mxCell id="gQBBfw7n3HrlF9a1rkUc-53" value="&lt;span style=&quot;font-size: 12px ; background-color: rgb(248 , 249 , 250)&quot;&gt;not finished &lt;br&gt;writing to cache&lt;/span&gt;" style="edgeLabel;html=1;align=center;verticalAlign=middle;resizable=0;points=[];" vertex="1" connectable="0" parent="gQBBfw7n3HrlF9a1rkUc-33">
          <mxGeometry x="0.3263" y="-14" relative="1" as="geometry">
            <mxPoint x="18.96" y="-3.55" as="offset" />
          </mxGeometry>
        </mxCell>
        <mxCell id="gQBBfw7n3HrlF9a1rkUc-40" value="" style="endArrow=classic;html=1;entryX=1;entryY=0.25;entryDx=0;entryDy=0;" edge="1" parent="WIyWlLk6GJQsqaUBKTNV-1" target="gQBBfw7n3HrlF9a1rkUc-0">
          <mxGeometry relative="1" as="geometry">
            <mxPoint x="570" y="160" as="sourcePoint" />
            <mxPoint x="670" y="160" as="targetPoint" />
          </mxGeometry>
        </mxCell>
        <mxCell id="gQBBfw7n3HrlF9a1rkUc-41" value="finished writing to cache" style="edgeLabel;resizable=0;html=1;align=center;verticalAlign=middle;" connectable="0" vertex="1" parent="gQBBfw7n3HrlF9a1rkUc-40">
          <mxGeometry relative="1" as="geometry" />
        </mxCell>
        <mxCell id="gQBBfw7n3HrlF9a1rkUc-42" value="" style="curved=1;endArrow=classic;html=1;exitX=0;exitY=0.75;exitDx=0;exitDy=0;entryX=0.825;entryY=1.05;entryDx=0;entryDy=0;entryPerimeter=0;" edge="1" parent="WIyWlLk6GJQsqaUBKTNV-1" source="gQBBfw7n3HrlF9a1rkUc-4" target="gQBBfw7n3HrlF9a1rkUc-0">
          <mxGeometry width="50" height="50" relative="1" as="geometry">
            <mxPoint x="250" y="370" as="sourcePoint" />
            <mxPoint x="300" y="320" as="targetPoint" />
            <Array as="points">
              <mxPoint x="290" y="330" />
              <mxPoint x="260" y="320" />
              <mxPoint x="230" y="290" />
            </Array>
          </mxGeometry>
        </mxCell>
        <mxCell id="gQBBfw7n3HrlF9a1rkUc-59" value="&lt;span style=&quot;font-size: 12px ; background-color: rgb(248 , 249 , 250)&quot;&gt;cache hit on valid&lt;/span&gt;" style="edgeLabel;html=1;align=center;verticalAlign=middle;resizable=0;points=[];" vertex="1" connectable="0" parent="gQBBfw7n3HrlF9a1rkUc-42">
          <mxGeometry x="0.0849" y="1" relative="1" as="geometry">
            <mxPoint as="offset" />
          </mxGeometry>
        </mxCell>
        <mxCell id="gQBBfw7n3HrlF9a1rkUc-44" value="write_to_mem_read" style="rounded=1;whiteSpace=wrap;html=1;" vertex="1" parent="WIyWlLk6GJQsqaUBKTNV-1">
          <mxGeometry x="550" y="220" width="120" height="60" as="geometry" />
        </mxCell>
        <mxCell id="gQBBfw7n3HrlF9a1rkUc-45" value="read_from_mem" style="rounded=1;whiteSpace=wrap;html=1;" vertex="1" parent="WIyWlLk6GJQsqaUBKTNV-1">
          <mxGeometry x="550" y="340" width="120" height="60" as="geometry" />
        </mxCell>
        <mxCell id="gQBBfw7n3HrlF9a1rkUc-46" value="" style="endArrow=classic;html=1;entryX=0;entryY=0.5;entryDx=0;entryDy=0;" edge="1" parent="WIyWlLk6GJQsqaUBKTNV-1" target="gQBBfw7n3HrlF9a1rkUc-44">
          <mxGeometry relative="1" as="geometry">
            <mxPoint x="440" y="270" as="sourcePoint" />
            <mxPoint x="540" y="270" as="targetPoint" />
          </mxGeometry>
        </mxCell>
        <mxCell id="gQBBfw7n3HrlF9a1rkUc-47" value="cache miss, dirty" style="edgeLabel;resizable=0;html=1;align=center;verticalAlign=middle;" connectable="0" vertex="1" parent="gQBBfw7n3HrlF9a1rkUc-46">
          <mxGeometry relative="1" as="geometry" />
        </mxCell>
        <mxCell id="gQBBfw7n3HrlF9a1rkUc-48" value="" style="endArrow=classic;html=1;entryX=0;entryY=0.25;entryDx=0;entryDy=0;" edge="1" parent="WIyWlLk6GJQsqaUBKTNV-1" target="gQBBfw7n3HrlF9a1rkUc-45">
          <mxGeometry relative="1" as="geometry">
            <mxPoint x="440" y="320" as="sourcePoint" />
            <mxPoint x="540" y="320" as="targetPoint" />
          </mxGeometry>
        </mxCell>
        <mxCell id="gQBBfw7n3HrlF9a1rkUc-49" value="cache miss, not dirty" style="edgeLabel;resizable=0;html=1;align=center;verticalAlign=middle;" connectable="0" vertex="1" parent="gQBBfw7n3HrlF9a1rkUc-48">
          <mxGeometry relative="1" as="geometry" />
        </mxCell>
        <mxCell id="gQBBfw7n3HrlF9a1rkUc-50" value="" style="curved=1;endArrow=classic;html=1;entryX=1.008;entryY=0.9;entryDx=0;entryDy=0;entryPerimeter=0;" edge="1" parent="WIyWlLk6GJQsqaUBKTNV-1" target="gQBBfw7n3HrlF9a1rkUc-44">
          <mxGeometry width="50" height="50" relative="1" as="geometry">
            <mxPoint x="671" y="230" as="sourcePoint" />
            <mxPoint x="740" y="200" as="targetPoint" />
            <Array as="points">
              <mxPoint x="740" y="220" />
              <mxPoint x="740" y="280" />
            </Array>
          </mxGeometry>
        </mxCell>
        <mxCell id="gQBBfw7n3HrlF9a1rkUc-52" value="not finished writing&lt;br&gt;to mem" style="edgeLabel;html=1;align=center;verticalAlign=middle;resizable=0;points=[];" vertex="1" connectable="0" parent="gQBBfw7n3HrlF9a1rkUc-50">
          <mxGeometry x="-0.1084" y="-5" relative="1" as="geometry">
            <mxPoint x="5" y="10.72" as="offset" />
          </mxGeometry>
        </mxCell>
        <mxCell id="gQBBfw7n3HrlF9a1rkUc-51" value="" style="curved=1;endArrow=classic;html=1;entryX=1.008;entryY=0.9;entryDx=0;entryDy=0;entryPerimeter=0;" edge="1" parent="WIyWlLk6GJQsqaUBKTNV-1">
          <mxGeometry width="50" height="50" relative="1" as="geometry">
            <mxPoint x="670.04" y="350" as="sourcePoint" />
            <mxPoint x="670" y="394" as="targetPoint" />
            <Array as="points">
              <mxPoint x="739.04" y="340" />
              <mxPoint x="739.04" y="400" />
            </Array>
          </mxGeometry>
        </mxCell>
        <mxCell id="gQBBfw7n3HrlF9a1rkUc-60" value="not finished reading&lt;br&gt;from mem" style="edgeLabel;html=1;align=center;verticalAlign=middle;resizable=0;points=[];" vertex="1" connectable="0" parent="gQBBfw7n3HrlF9a1rkUc-51">
          <mxGeometry x="-0.1135" y="-1" relative="1" as="geometry">
            <mxPoint y="11.39" as="offset" />
          </mxGeometry>
        </mxCell>
        <mxCell id="gQBBfw7n3HrlF9a1rkUc-62" value="" style="endArrow=classic;html=1;exitX=0.431;exitY=1.044;exitDx=0;exitDy=0;exitPerimeter=0;entryX=0.5;entryY=0;entryDx=0;entryDy=0;" edge="1" parent="WIyWlLk6GJQsqaUBKTNV-1" source="gQBBfw7n3HrlF9a1rkUc-44" target="gQBBfw7n3HrlF9a1rkUc-45">
          <mxGeometry relative="1" as="geometry">
            <mxPoint x="600" y="300" as="sourcePoint" />
            <mxPoint x="700" y="300" as="targetPoint" />
          </mxGeometry>
        </mxCell>
        <mxCell id="gQBBfw7n3HrlF9a1rkUc-63" value="finished writing to mem" style="edgeLabel;resizable=0;html=1;align=center;verticalAlign=middle;" connectable="0" vertex="1" parent="gQBBfw7n3HrlF9a1rkUc-62">
          <mxGeometry relative="1" as="geometry" />
        </mxCell>
        <mxCell id="gQBBfw7n3HrlF9a1rkUc-64" value="" style="curved=1;endArrow=classic;html=1;exitX=0.5;exitY=1;exitDx=0;exitDy=0;entryX=0.368;entryY=1.044;entryDx=0;entryDy=0;entryPerimeter=0;" edge="1" parent="WIyWlLk6GJQsqaUBKTNV-1" source="gQBBfw7n3HrlF9a1rkUc-45" target="gQBBfw7n3HrlF9a1rkUc-0">
          <mxGeometry width="50" height="50" relative="1" as="geometry">
            <mxPoint x="450" y="490" as="sourcePoint" />
            <mxPoint x="500" y="440" as="targetPoint" />
            <Array as="points">
              <mxPoint x="480" y="450" />
              <mxPoint x="180" y="340" />
            </Array>
          </mxGeometry>
        </mxCell>
        <mxCell id="gQBBfw7n3HrlF9a1rkUc-65" value="finished reading from mem" style="edgeLabel;html=1;align=center;verticalAlign=middle;resizable=0;points=[];" vertex="1" connectable="0" parent="gQBBfw7n3HrlF9a1rkUc-64">
          <mxGeometry x="0.1571" y="-8" relative="1" as="geometry">
            <mxPoint as="offset" />
          </mxGeometry>
        </mxCell>
      </root>
    </mxGraphModel>
  </diagram>
</mxfile>
